<svg aria-hidden="true" style="position: absolute; width: 0; height: 0; overflow: hidden;" version="1.1" xmlns="http://www.w3.org/2000/svg" xmlns:xlink="http://www.w3.org/1999/xlink">
<defs>
<symbol id="home" viewBox="0 0 32 32">
<path  d="M29.578 15.782l-12.884-12.878c-0.184-0.183-0.434-0.286-0.694-0.286s-0.509 0.103-0.694 0.286l-12.884 12.878c-0.189 0.188-0.338 0.412-0.439 0.659s-0.151 0.512-0.148 0.778c0.012 1.1 0.928 1.978 2.028 1.978h1.328v10.178h21.619v-10.178h1.356c0.534 0 1.038-0.209 1.416-0.588 0.186-0.186 0.334-0.406 0.434-0.649s0.151-0.503 0.15-0.766c0-0.531-0.209-1.034-0.587-1.412v0zM17.75 27.125h-3.5v-6.375h3.5v6.375zM24.559 16.947v10.178h-4.809v-7.125c0-0.691-0.559-1.25-1.25-1.25h-5c-0.691 0-1.25 0.559-1.25 1.25v7.125h-4.809v-10.178h-3l11.563-11.553 11.559 11.553h-3.003z"></path>
</symbol>
<symbol id="logout" viewBox="0 0 32 32">
<path d="M31.898 14.157c-0.068-0.163-0.165-0.311-0.289-0.435l-3.999-3.999c-0.521-0.52-1.364-0.52-1.885 0-0.521 0.521-0.521 1.365 0 1.885l1.724 1.724h-7.448c-0.737 0-1.333 0.597-1.333 1.333s0.596 1.333 1.333 1.333h7.448l-1.724 1.724c-0.521 0.521-0.521 1.365 0 1.885 0.26 0.261 0.601 0.391 0.943 0.391s0.683-0.129 0.943-0.391l3.999-3.999c0.124-0.123 0.221-0.271 0.289-0.435 0.135-0.325 0.135-0.693 0-1.018z"></path>
<path d="M22.668 18.667c-0.737 0-1.333 0.597-1.333 1.333v6.667h-5.333v-21.333c0-0.588-0.387-1.108-0.951-1.277l-4.631-1.389h10.915v6.667c0 0.736 0.596 1.333 1.333 1.333s1.333-0.597 1.333-1.333v-8c0-0.736-0.596-1.333-1.333-1.333h-21.333c-0.048 0-0.091 0.020-0.137 0.025-0.063 0.007-0.12 0.017-0.18 0.032-0.14 0.036-0.267 0.091-0.385 0.165-0.029 0.019-0.065 0.020-0.093 0.041-0.011 0.008-0.015 0.023-0.025 0.031-0.145 0.115-0.267 0.255-0.355 0.421-0.019 0.036-0.023 0.075-0.037 0.112-0.043 0.101-0.089 0.2-0.105 0.312-0.007 0.040 0.005 0.077 0.004 0.116-0.001 0.027-0.019 0.051-0.019 0.077v26.667c0 0.636 0.449 1.183 1.072 1.307l13.333 2.667c0.087 0.019 0.175 0.027 0.261 0.027 0.305 0 0.605-0.105 0.845-0.303 0.308-0.253 0.488-0.631 0.488-1.031v-1.333h6.667c0.737 0 1.333-0.597 1.333-1.333v-8c0-0.736-0.596-1.333-1.333-1.333z"></path>
</symbol>
<symbol id="rating" viewBox="0 0 32 32">
<path  d="M31.257 13.317c-0.205-0.635-0.768-1.085-1.434-1.145l-9.045-0.821-3.577-8.372c-0.264-0.614-0.864-1.011-1.532-1.011s-1.268 0.397-1.532 1.012l-3.577 8.37-9.046 0.821c-0.665 0.061-1.226 0.511-1.432 1.145s-0.016 1.331 0.487 1.769l6.837 5.996-2.016 8.881c-0.148 0.653 0.106 1.328 0.648 1.72 0.291 0.21 0.632 0.317 0.976 0.317 0.296 0 0.59-0.080 0.854-0.238l7.802-4.663 7.799 4.663c0.571 0.343 1.29 0.312 1.831-0.080 0.542-0.393 0.795-1.068 0.648-1.72l-2.016-8.881 6.837-5.995c0.503-0.44 0.695-1.135 0.489-1.771z"></path>
</symbol>
<symbol id="search" viewBox="0 0 32 32">
<path  d="M28.425 26.703l-8.116-8.116c1.259-1.628 1.941-3.619 1.941-5.713 0-2.506-0.978-4.856-2.747-6.628s-4.125-2.747-6.628-2.747c-2.503 0-4.859 0.978-6.628 2.747-1.772 1.769-2.747 4.122-2.747 6.628 0 2.503 0.978 4.859 2.747 6.628 1.769 1.772 4.122 2.747 6.628 2.747 2.094 0 4.081-0.681 5.709-1.937l8.116 8.113c0.024 0.024 0.052 0.043 0.083 0.055s0.065 0.020 0.098 0.020 0.067-0.007 0.098-0.020c0.031-0.013 0.059-0.032 0.083-0.055l1.363-1.359c0.024-0.024 0.043-0.052 0.055-0.083s0.020-0.064 0.020-0.098c0-0.034-0.007-0.067-0.020-0.098s-0.032-0.059-0.055-0.083v0zM17.825 17.825c-1.325 1.322-3.081 2.050-4.95 2.050s-3.625-0.728-4.95-2.050c-1.322-1.325-2.050-3.081-2.050-4.95s0.728-3.628 2.050-4.95c1.325-1.322 3.081-2.050 4.95-2.050s3.628 0.725 4.95 2.050c1.322 1.325 2.050 3.081 2.050 4.95s-0.728 3.628-2.050 4.95z"></path>
</symbol>
<symbol id="shopping-cart-white" viewBox="0 0 32 32">
<path  d="M30.763 21.824h-19.85l0.997-2.030 16.56-0.030c0.56 0 1.040-0.4 1.14-0.953l2.293-12.837c0.060-0.337-0.030-0.683-0.25-0.947-0.109-0.13-0.244-0.234-0.397-0.306s-0.32-0.11-0.489-0.111l-21.067-0.070-0.18-0.847c-0.113-0.54-0.6-0.933-1.153-0.933h-5.15c-0.312 0-0.611 0.124-0.832 0.345s-0.345 0.52-0.345 0.832c0 0.312 0.124 0.611 0.345 0.832s0.52 0.345 0.832 0.345h4.197l0.787 3.74 1.937 9.377-2.493 4.070c-0.13 0.175-0.207 0.382-0.225 0.599s0.026 0.434 0.125 0.628c0.2 0.397 0.603 0.647 1.050 0.647h2.093c-0.446 0.593-0.687 1.315-0.687 2.057 0 1.887 1.533 3.42 3.42 3.42s3.42-1.533 3.42-3.42c0-0.743-0.247-1.467-0.687-2.057h5.37c-0.446 0.593-0.687 1.315-0.687 2.057 0 1.887 1.533 3.42 3.42 3.42s3.42-1.533 3.42-3.42c0-0.743-0.247-1.467-0.686-2.057h3.777c0.647 0 1.177-0.527 1.177-1.177-0.002-0.312-0.127-0.61-0.348-0.83s-0.52-0.343-0.832-0.343v0zM10.19 6.861l19.193 0.063-1.88 10.527-15.077 0.027-2.237-10.617zM13.42 27.284c-0.58 0-1.053-0.473-1.053-1.053s0.473-1.053 1.053-1.053c0.58 0 1.053 0.473 1.053 1.053 0 0.279-0.111 0.547-0.309 0.745s-0.465 0.309-0.745 0.309v0zM24.256 27.284c-0.58 0-1.053-0.473-1.053-1.053s0.473-1.053 1.053-1.053c0.58 0 1.053 0.473 1.053 1.053 0 0.279-0.111 0.547-0.308 0.745s-0.465 0.309-0.745 0.309v0z"></path>
</symbol>
<symbol id="user" viewBox="0 0 32 32">
<path  d="M28.376 24.986c-0.674-1.596-1.651-3.045-2.879-4.268-1.223-1.226-2.673-2.204-4.268-2.879-0.014-0.007-0.029-0.011-0.043-0.018 2.225-1.607 3.671-4.225 3.671-7.179 0-4.893-3.964-8.857-8.857-8.857s-8.857 3.964-8.857 8.857c0 2.954 1.446 5.571 3.671 7.182-0.014 0.007-0.029 0.011-0.043 0.018-1.6 0.675-3.036 1.643-4.268 2.879-1.226 1.223-2.204 2.673-2.879 4.268-0.663 1.562-1.021 3.236-1.054 4.932-0.001 0.038 0.006 0.076 0.020 0.112s0.035 0.068 0.061 0.095c0.027 0.027 0.058 0.049 0.094 0.064s0.073 0.023 0.111 0.023h2.143c0.157 0 0.282-0.125 0.286-0.279 0.071-2.757 1.179-5.339 3.136-7.296 2.025-2.025 4.714-3.139 7.579-3.139s5.554 1.114 7.579 3.139c1.957 1.957 3.064 4.539 3.136 7.296 0.004 0.157 0.129 0.279 0.286 0.279h2.143c0.038 0 0.076-0.008 0.111-0.023s0.067-0.036 0.093-0.064c0.027-0.027 0.048-0.060 0.061-0.095s0.021-0.073 0.020-0.112c-0.036-1.707-0.389-3.368-1.053-4.936v0zM16.001 16.786c-1.639 0-3.182-0.639-4.343-1.8s-1.8-2.704-1.8-4.343c0-1.639 0.639-3.182 1.8-4.343s2.704-1.8 4.343-1.8c1.639 0 3.182 0.639 4.343 1.8s1.8 2.704 1.8 4.343c0 1.639-0.639 3.182-1.8 4.343s-2.704 1.8-4.343 1.8z"></path>
</symbol>
<symbol id="facebook" viewBox="0 0 32 32">
<path d="M16 0c-8.822 0-16 7.178-16 16s7.178 16 16 16 16-7.178 16-16-7.178-16-16-16zM16 30.169c-7.813 0-14.169-6.356-14.169-14.169s6.356-14.169 14.169-14.169 14.169 6.356 14.169 14.169-6.356 14.169-14.169 14.169z"></path>
<path d="M19.706 7.317h-2.17c-1.776 0-3.221 1.445-3.221 3.221v2.441h-2.021c-0.506 0-0.915 0.41-0.915 0.915s0.41 0.915 0.915 0.915h2.021v8.475c0 0.506 0.41 0.915 0.915 0.915s0.915-0.41 0.915-0.915v-8.475h3.127c0.506 0 0.915-0.41 0.915-0.915s-0.41-0.915-0.915-0.915h-3.127v-2.441c0-0.766 0.624-1.39 1.39-1.39h2.17c0.506 0 0.915-0.41 0.915-0.915s-0.41-0.915-0.915-0.915z"></path>
</symbol>
<symbol id="instagram" viewBox="0 0 32 32">
<path d="M16 0c-8.822 0-16 7.178-16 16s7.178 16 16 16 16-7.178 16-16-7.178-16-16-16zM16 30.169c-7.813 0-14.169-6.356-14.169-14.169s6.356-14.169 14.169-14.169 14.169 6.356 14.169 14.169-6.356 14.169-14.169 14.169z"></path>
<path d="M21.827 8.169h-11.653c-1.066 0-1.932 0.867-1.932 1.932v11.797c0 1.066 0.867 1.932 1.932 1.932h11.653c1.066 0 1.932-0.867 1.932-1.932v-11.797c0-1.065-0.867-1.932-1.932-1.932zM21.928 21.899c0 0.056-0.046 0.102-0.102 0.102h-11.653c-0.056 0-0.102-0.046-0.102-0.102v-11.797c0-0.056 0.046-0.102 0.102-0.102h11.653c0.056 0 0.102 0.046 0.102 0.102v11.797z"></path>
<path d="M18.67 11.371h2.097v1.923h-2.097v-1.923z"></path>
<path d="M18.067 16.775c0 1.142-0.925 2.067-2.067 2.067s-2.067-0.925-2.067-2.067c0-1.142 0.925-2.067 2.067-2.067s2.067 0.925 2.067 2.067z"></path>
<path d="M19.297 16.766c0 1.821-1.476 3.297-3.297 3.297s-3.297-1.476-3.297-3.297l0.004-1.469h-1.474v5.467h9.534v-5.467h-1.462l-0.008 1.469z"></path>
</symbol>
</defs>
</svg>
